<svg xmlns="http://www.w3.org/2000/svg" xmlns:xlink="http://www.w3.org/1999/xlink" version="1.1" x="0px" y="0px" viewBox="0 0 100 100" enable-background="new 0 0 100 100" xml:space="preserve"><path fill-rule="evenodd" clip-rule="evenodd" d="M6.536,36.023H5V23.732l89.834,0.073l-0.073,12.218h-1.318l-0.071-7.097H6.609  L6.536,36.023z M7.268,29.585H92.42l0.146,7.244l2.341,0.073c0,0-0.057,30.343-0.069,37.143c0,1.277-0.125,1.342-1.32,1.342  c-10.199,0-76.479,0-87.03,0c-1.276,0-1.417-0.08-1.417-1.294C5.07,67.384,5,36.829,5,36.829l2.341,0.073L7.268,29.585z   M30.969,38.365h37.895c0.403,0,0.73,0.328,0.73,0.731v25.609c0,0.405-0.327,0.731-0.73,0.731H30.969  c-0.404,0-0.731-0.326-0.731-0.731V39.096C30.238,38.693,30.565,38.365,30.969,38.365z M31.994,39.169h35.773  c0.404,0,0.731,0.328,0.731,0.732v6l-37.236-0.073v-5.926C31.262,39.498,31.59,39.169,31.994,39.169z M31.409,61.852h37.163v0.439  H31.409V61.852z M31.409,55.412h37.163v0.438H31.409V55.412z M31.409,52.193h37.163v0.438H31.409V52.193z M31.409,48.828h37.163  v0.438H31.409V48.828z M31.409,58.777h37.163v0.439H31.409V58.777z M83.934,38.218c3.876,0,7.242,7,7.242,13.754  c0,6.854-3.438,13.464-7.242,13.464s-12.363,0-12.363,0c-0.404,0-0.731-0.326-0.731-0.731V38.95c0-0.404,0.327-0.732,0.731-0.732  c0,0,7.253,0,11.412,0c-1.17,8.378-1.463,10.61-1.463,10.61s-0.278-3.011-4.316-5.268c-2.857-1.598-5.707-1.61-5.707-1.61  s0,3.303,0,5.948c5.304,0,5.06,8.304,0,8.304c0,2.751,0,6.161,0,6.161s4.089-0.185,6.878-2.561c2.604-2.222,3.511-5.671,3.511-6.366  C81.885,52.742,83.934,38.694,83.934,38.218z M12.319,40.173c1.051-1.222,2.253-1.955,3.508-1.955c3.877,0,12.363,0,12.363,0  c0.404,0,0.732,0.328,0.732,0.732v25.755c0,0.405-0.328,0.731-0.732,0.731c0,0-8.559,0-12.363,0c-3.804,0-7.242-6.609-7.242-13.464  c0-3.648,0.982-7.368,2.495-10.018c0,0.841,0.065,10.036,0.065,10.036s0.367,4.697,1.79,7.848c1.542,3.413,4.151,4.939,4.151,4.939  l10.949-0.165c0,0-0.056-4.506-0.044-8.066c-5.948,0-5.927-9.463,0.031-9.463c0.012-3.583,0.094-8.124,0.094-8.124l-11.03-0.083  c0,0-1.267,1.03-2.408,2.604c-1.218,1.68-2.312,3.912-2.312,3.912S12.319,40.952,12.319,40.173z"></path></svg>